<svg width="808" height="472" viewBox="0 0 808 472" fill="none" xmlns="http://www.w3.org/2000/svg">
<g filter="url(#filter0_d_0_73)">
<rect x="20" width="768" height="432" rx="4" fill="#191919"/>
</g>
<mask id="mask0_0_73" style="mask-type:luminance" maskUnits="userSpaceOnUse" x="20" y="0" width="768" height="432">
<rect x="20" width="768" height="432" rx="4" fill="white"/>
</mask>
<g mask="url(#mask0_0_73)">
</g>
<g clip-path="url(#clip0_0_73)">
<circle cx="404" cy="216" r="128" fill="url(#paint0_linear_0_73)" fill-opacity="0.04"/>
<circle cx="404" cy="216" r="96" fill="url(#paint1_linear_0_73)" fill-opacity="0.16"/>
<g filter="url(#filter1_d_0_73)">
<circle cx="404" cy="216" r="64" fill="url(#paint2_radial_0_73)"/>
</g>
<path opacity="0.48" d="M110 369H650" stroke="url(#paint3_linear_0_73)"/>
<path opacity="0.48" d="M110 64H650" stroke="url(#paint4_linear_0_73)"/>
<path opacity="0.48" d="M564 -240V300" stroke="url(#paint5_linear_0_73)"/>
<path opacity="0.48" d="M244 132L244 672" stroke="url(#paint6_linear_0_73)"/>
<path opacity="0.48" d="M192.828 81.6562C192.964 83.6042 193.078 85.8594 193.172 88.4219C193.109 88.7448 192.859 88.9062 192.422 88.9062C192.307 88.9062 192.188 88.8854 192.062 88.8438C191.948 88.7917 191.875 88.724 191.844 88.6406V81.6562H192.828ZM191.375 79.5312C191.375 79.1667 191.589 78.9844 192.016 78.9844C192.297 78.9844 192.526 79.0469 192.703 79.1719C192.734 79.2865 192.75 79.401 192.75 79.5156C192.75 79.6198 192.708 79.724 192.625 79.8281C192.542 79.9323 192.417 79.9844 192.25 79.9844C192.083 79.9844 191.917 79.9479 191.75 79.875C191.583 79.7917 191.458 79.6771 191.375 79.5312ZM200.188 85.5781C200.188 84.3385 200.12 83.4271 199.984 82.8438C200.068 82.6875 199.943 82.6094 199.609 82.6094C199.255 82.6094 198.797 82.6979 198.234 82.875C197.672 83.0521 197.214 83.2292 196.859 83.4062C196.016 83.8125 195.547 84.2083 195.453 84.5938V88.8438H194.406C194.271 88.4896 194.203 87.4948 194.203 85.8594C194.203 84.401 194.229 83.3281 194.281 82.6406C194.344 81.9531 194.391 81.5625 194.422 81.4688C194.693 81.2917 194.911 81.2031 195.078 81.2031C195.339 81.2031 195.469 81.5104 195.469 82.125C195.469 82.3646 195.453 82.599 195.422 82.8281C195.401 83.0469 195.391 83.1979 195.391 83.2812C197.078 82.0417 198.385 81.4219 199.312 81.4219C200.365 81.4219 200.964 82.2708 201.109 83.9688C201.172 84.5625 201.203 85.3854 201.203 86.4375L201.188 87.6719C201.188 88.1302 201.198 88.5729 201.219 89C201.115 89.0625 201.031 89.0938 200.969 89.0938C200.938 89.0833 200.87 89.0677 200.766 89.0469C200.661 89.026 200.526 89.0104 200.359 89C200.255 88.5833 200.198 88.1615 200.188 87.7344C200.177 87.2969 200.172 86.8958 200.172 86.5312L200.188 85.5781ZM207.688 84.9688C208.833 84.9688 209.406 85.2604 209.406 85.8438C209.406 86.2812 209.089 86.7917 208.453 87.375C207.505 88.2396 206.229 88.9323 204.625 89.4531C204.552 89.4531 204.469 89.3802 204.375 89.2344C204.292 89.0885 204.224 88.9792 204.172 88.9062C204.13 88.8229 204.099 88.7708 204.078 88.75C205.276 88.3542 206.26 87.875 207.031 87.3125C207.552 86.9375 207.812 86.6302 207.812 86.3906C207.812 86.151 207.505 86.0312 206.891 86.0312C206.276 86.0312 205.375 86.1771 204.188 86.4688C203.646 86.4479 203.177 86.2552 202.781 85.8906C202.438 85.5677 202.266 85.2448 202.266 84.9219C202.266 84.5885 202.359 84.2865 202.547 84.0156C202.734 83.7344 202.984 83.474 203.297 83.2344C203.609 82.9948 203.974 82.776 204.391 82.5781C205.411 82.0885 206.469 81.8438 207.562 81.8438C207.885 81.8438 208.198 81.875 208.5 81.9375C208.75 81.9375 208.896 82.0469 208.938 82.2656C208.979 82.4844 209 82.8438 209 83.3438C208.385 83.0625 207.693 82.9219 206.922 82.9219C205.964 82.9219 205.172 83.1146 204.547 83.5C203.901 83.875 203.568 84.3646 203.547 84.9688C203.547 85.2604 203.76 85.4062 204.188 85.4062L205.328 85.2812C206.307 85.0729 207.094 84.9688 207.688 84.9688ZM213.812 87.9062C214.729 87.9062 216.109 87.4896 217.953 86.6562C218.068 86.6562 218.161 86.6979 218.234 86.7812C218.307 86.8542 218.344 86.9427 218.344 87.0469C217.927 87.7552 217.13 88.3073 215.953 88.7031C214.776 89.099 213.677 89.1667 212.656 88.9062C211.5 88.6042 210.797 87.9531 210.547 86.9531C210.526 86.7552 210.516 86.4896 210.516 86.1562C210.516 85.8229 210.599 85.3854 210.766 84.8438C210.943 84.2917 211.24 83.7708 211.656 83.2812C212.073 82.7917 212.562 82.4062 213.125 82.125C213.688 81.8438 214.286 81.7031 214.922 81.7031C215.526 81.7031 216.203 81.9115 216.953 82.3281C217.307 82.526 217.589 82.75 217.797 83C218.005 83.25 218.109 83.5052 218.109 83.7656C218.109 83.8385 218.104 83.9115 218.094 83.9844C218.073 84.6198 217.766 85.0208 217.172 85.1875C216.911 85.2604 216.609 85.2969 216.266 85.2969L214.016 85.2031C213.266 85.2031 212.693 85.3646 212.297 85.6875C212.068 85.8646 211.906 86.1302 211.812 86.4844C212.073 87.4323 212.74 87.9062 213.812 87.9062ZM216.594 83.0781C216.365 82.9115 216.125 82.7917 215.875 82.7188C215.625 82.6458 215.417 82.6094 215.25 82.6094C215.083 82.6094 214.812 82.6667 214.438 82.7812C214.062 82.8854 213.729 83.0052 213.438 83.1406C212.719 83.474 212.359 83.8229 212.359 84.1875C213.193 84.2604 213.818 84.2969 214.234 84.2969C215.391 84.2969 216.172 84.1979 216.578 84C216.828 83.8958 216.953 83.7656 216.953 83.6094C216.953 83.4219 216.833 83.2448 216.594 83.0781ZM227.203 83.2969C226.766 82.9844 226.203 82.8281 225.516 82.8281C224.87 82.8281 224.271 82.9479 223.719 83.1875C222.677 83.625 221.964 84.1875 221.578 84.875C221.411 85.1875 221.328 85.5208 221.328 85.875C221.328 85.9375 221.328 86.1146 221.328 86.4062C221.328 86.6875 221.38 87.0729 221.484 87.5625C221.589 88.0417 221.641 88.5312 221.641 89.0312C221.422 89.0417 221.245 89.0677 221.109 89.1094C220.974 89.151 220.859 89.1719 220.766 89.1719C220.672 89.1719 220.589 89.1302 220.516 89.0469C220.453 88.9635 220.38 88.8021 220.297 88.5625C220.286 88.5 220.266 88.3229 220.234 88.0312C220.203 87.7396 220.161 87.3854 220.109 86.9688C220.068 86.5521 220.016 86.099 219.953 85.6094C219.901 85.1094 219.849 84.6198 219.797 84.1406C219.682 83.099 219.594 82.3333 219.531 81.8438C219.531 81.5938 219.714 81.4688 220.078 81.4688C220.297 81.4688 220.469 81.5625 220.594 81.75C220.719 81.9271 220.818 82.1354 220.891 82.375C220.964 82.6042 221.01 82.8333 221.031 83.0625C221.062 83.2917 221.089 83.4531 221.109 83.5469C222.484 82.3177 224.193 81.7031 226.234 81.7031C226.464 81.7031 226.703 81.7083 226.953 81.7188C227.016 81.7083 227.094 81.7031 227.188 81.7031C227.281 81.7031 227.375 81.7656 227.469 81.8906C227.583 82.0365 227.641 82.2135 227.641 82.4219C227.641 82.9427 227.495 83.2344 227.203 83.2969ZM230.969 87.5L231 85C231 84.6042 230.964 84.2656 230.891 83.9844H228.469L228.438 82.9062H230.781V78.875C230.812 78.7812 230.875 78.6875 230.969 78.5938C231.115 78.4479 231.234 78.375 231.328 78.375C231.432 78.375 231.521 78.3854 231.594 78.4062C231.667 78.4271 231.745 78.5 231.828 78.625C231.995 79.3125 232.078 80.349 232.078 81.7344C232.078 82.0781 232.094 82.4167 232.125 82.75C232.458 82.7083 232.792 82.6875 233.125 82.6875C233.125 82.6875 233.396 82.6875 233.938 82.6875C234.135 82.6875 234.318 82.6771 234.484 82.6562L234.438 83.7812L232.156 83.7188L232.234 89.1094C232.047 89.1927 231.885 89.2344 231.75 89.2344C231.229 89.2344 230.969 88.6562 230.969 87.5ZM236.109 87.0312C236.109 86.875 236.177 86.724 236.312 86.5781C236.458 86.4323 236.62 86.3594 236.797 86.3594C236.974 86.3594 237.109 86.4167 237.203 86.5312C237.297 86.6458 237.344 86.7708 237.344 86.9062C237.344 87.0312 237.292 87.151 237.188 87.2656C237.094 87.3698 237.005 87.4219 236.922 87.4219C236.839 87.4219 236.76 87.4219 236.688 87.4219C236.625 87.4219 236.51 87.3958 236.344 87.3438C236.188 87.2917 236.109 87.1875 236.109 87.0312ZM235.609 84.0312C235.464 83.9896 235.391 83.9115 235.391 83.7969C235.391 83.6406 235.469 83.5104 235.625 83.4062C235.781 83.3021 235.906 83.2448 236 83.2344C236.323 83.276 236.526 83.3594 236.609 83.4844C236.703 83.599 236.75 83.6927 236.75 83.7656C236.75 83.9844 236.615 84.125 236.344 84.1875C236.302 84.2083 236.224 84.2188 236.109 84.2188C236.005 84.2188 235.839 84.1562 235.609 84.0312ZM251.219 87.3594C251.646 87.1823 252.062 87.0208 252.469 86.875C252.875 86.7292 253.26 86.6562 253.625 86.6562C254 86.6562 254.188 86.7708 254.188 87C254.188 87.0521 254.172 87.1354 254.141 87.25C254.12 87.3542 253.979 87.4844 253.719 87.6406C253.469 87.7865 253.156 87.9271 252.781 88.0625C252.417 88.1979 252.016 88.3229 251.578 88.4375C251.141 88.5521 250.714 88.651 250.297 88.7344C249.432 88.9115 248.818 89 248.453 89C248.089 89 247.693 88.9583 247.266 88.875C246.849 88.7917 246.458 88.6562 246.094 88.4688C245.25 88.0312 244.828 87.3854 244.828 86.5312C244.828 86.4688 244.828 86.3438 244.828 86.1562C244.828 85.9688 244.906 85.7031 245.062 85.3594C245.219 85.0052 245.453 84.6562 245.766 84.3125C246.078 83.9583 246.443 83.6354 246.859 83.3438C247.734 82.7188 248.651 82.3125 249.609 82.125C249.943 82.0521 250.219 82.0156 250.438 82.0156C250.667 82.0156 250.854 82.0208 251 82.0312C251.146 82.0312 251.297 82.0417 251.453 82.0625C251.609 82.0729 251.745 82.1094 251.859 82.1719C252.13 82.3073 252.266 82.5729 252.266 82.9688C252.266 83.2188 252.089 83.4635 251.734 83.7031C251.641 83.7656 251.557 83.8229 251.484 83.875C251.432 83.6354 251.365 83.4323 251.281 83.2656C251.198 83.099 251.016 83.0156 250.734 83.0156C249.505 83.276 248.448 83.6667 247.562 84.1875C246.562 84.7812 246.062 85.4062 246.062 86.0625C246.062 86.1354 246.068 86.2135 246.078 86.2969C246.078 86.9635 246.333 87.4375 246.844 87.7188C247.229 87.9271 247.724 88.0312 248.328 88.0312C248.943 88.0312 249.474 87.9635 249.922 87.8281C250.37 87.6823 250.802 87.526 251.219 87.3594ZM256.688 81.6562C256.823 83.6042 256.938 85.8594 257.031 88.4219C256.969 88.7448 256.719 88.9062 256.281 88.9062C256.167 88.9062 256.047 88.8854 255.922 88.8438C255.807 88.7917 255.734 88.724 255.703 88.6406V81.6562H256.688ZM255.234 79.5312C255.234 79.1667 255.448 78.9844 255.875 78.9844C256.156 78.9844 256.385 79.0469 256.562 79.1719C256.594 79.2865 256.609 79.401 256.609 79.5156C256.609 79.6198 256.568 79.724 256.484 79.8281C256.401 79.9323 256.276 79.9844 256.109 79.9844C255.943 79.9844 255.776 79.9479 255.609 79.875C255.443 79.7917 255.318 79.6771 255.234 79.5312ZM265.625 83.2969C265.188 82.9844 264.625 82.8281 263.938 82.8281C263.292 82.8281 262.693 82.9479 262.141 83.1875C261.099 83.625 260.385 84.1875 260 84.875C259.833 85.1875 259.75 85.5208 259.75 85.875C259.75 85.9375 259.75 86.1146 259.75 86.4062C259.75 86.6875 259.802 87.0729 259.906 87.5625C260.01 88.0417 260.062 88.5312 260.062 89.0312C259.844 89.0417 259.667 89.0677 259.531 89.1094C259.396 89.151 259.281 89.1719 259.188 89.1719C259.094 89.1719 259.01 89.1302 258.938 89.0469C258.875 88.9635 258.802 88.8021 258.719 88.5625C258.708 88.5 258.688 88.3229 258.656 88.0312C258.625 87.7396 258.583 87.3854 258.531 86.9688C258.49 86.5521 258.438 86.099 258.375 85.6094C258.323 85.1094 258.271 84.6198 258.219 84.1406C258.104 83.099 258.016 82.3333 257.953 81.8438C257.953 81.5938 258.135 81.4688 258.5 81.4688C258.719 81.4688 258.891 81.5625 259.016 81.75C259.141 81.9271 259.24 82.1354 259.312 82.375C259.385 82.6042 259.432 82.8333 259.453 83.0625C259.484 83.2917 259.51 83.4531 259.531 83.5469C260.906 82.3177 262.615 81.7031 264.656 81.7031C264.885 81.7031 265.125 81.7083 265.375 81.7188C265.438 81.7083 265.516 81.7031 265.609 81.7031C265.703 81.7031 265.797 81.7656 265.891 81.8906C266.005 82.0365 266.062 82.2135 266.062 82.4219C266.062 82.9427 265.917 83.2344 265.625 83.2969ZM273.344 87.3594C273.771 87.1823 274.188 87.0208 274.594 86.875C275 86.7292 275.385 86.6562 275.75 86.6562C276.125 86.6562 276.312 86.7708 276.312 87C276.312 87.0521 276.297 87.1354 276.266 87.25C276.245 87.3542 276.104 87.4844 275.844 87.6406C275.594 87.7865 275.281 87.9271 274.906 88.0625C274.542 88.1979 274.141 88.3229 273.703 88.4375C273.266 88.5521 272.839 88.651 272.422 88.7344C271.557 88.9115 270.943 89 270.578 89C270.214 89 269.818 88.9583 269.391 88.875C268.974 88.7917 268.583 88.6562 268.219 88.4688C267.375 88.0312 266.953 87.3854 266.953 86.5312C266.953 86.4688 266.953 86.3438 266.953 86.1562C266.953 85.9688 267.031 85.7031 267.188 85.3594C267.344 85.0052 267.578 84.6562 267.891 84.3125C268.203 83.9583 268.568 83.6354 268.984 83.3438C269.859 82.7188 270.776 82.3125 271.734 82.125C272.068 82.0521 272.344 82.0156 272.562 82.0156C272.792 82.0156 272.979 82.0208 273.125 82.0312C273.271 82.0312 273.422 82.0417 273.578 82.0625C273.734 82.0729 273.87 82.1094 273.984 82.1719C274.255 82.3073 274.391 82.5729 274.391 82.9688C274.391 83.2188 274.214 83.4635 273.859 83.7031C273.766 83.7656 273.682 83.8229 273.609 83.875C273.557 83.6354 273.49 83.4323 273.406 83.2656C273.323 83.099 273.141 83.0156 272.859 83.0156C271.63 83.276 270.573 83.6667 269.688 84.1875C268.688 84.7812 268.188 85.4062 268.188 86.0625C268.188 86.1354 268.193 86.2135 268.203 86.2969C268.203 86.9635 268.458 87.4375 268.969 87.7188C269.354 87.9271 269.849 88.0312 270.453 88.0312C271.068 88.0312 271.599 87.9635 272.047 87.8281C272.495 87.6823 272.927 87.526 273.344 87.3594ZM277.688 82.9375C277.667 82.375 277.646 81.875 277.625 81.4375C277.604 80.9896 277.589 80.6615 277.578 80.4531C277.578 80.2344 277.495 79.7083 277.328 78.875C277.422 78.75 277.51 78.6302 277.594 78.5156C277.688 78.401 277.818 78.3438 277.984 78.3438C278.349 78.3438 278.63 79.8802 278.828 82.9531C278.932 84.7344 278.984 86.5156 278.984 88.2969C278.984 88.776 278.651 89.0156 277.984 89.0156L277.859 89C277.859 88.4583 277.844 87.7656 277.812 86.9219C277.781 86.0781 277.755 85.3438 277.734 84.7188C277.724 84.0938 277.708 83.5 277.688 82.9375ZM283.359 87.9062C284.276 87.9062 285.656 87.4896 287.5 86.6562C287.615 86.6562 287.708 86.6979 287.781 86.7812C287.854 86.8542 287.891 86.9427 287.891 87.0469C287.474 87.7552 286.677 88.3073 285.5 88.7031C284.323 89.099 283.224 89.1667 282.203 88.9062C281.047 88.6042 280.344 87.9531 280.094 86.9531C280.073 86.7552 280.062 86.4896 280.062 86.1562C280.062 85.8229 280.146 85.3854 280.312 84.8438C280.49 84.2917 280.786 83.7708 281.203 83.2812C281.62 82.7917 282.109 82.4062 282.672 82.125C283.234 81.8438 283.833 81.7031 284.469 81.7031C285.073 81.7031 285.75 81.9115 286.5 82.3281C286.854 82.526 287.135 82.75 287.344 83C287.552 83.25 287.656 83.5052 287.656 83.7656C287.656 83.8385 287.651 83.9115 287.641 83.9844C287.62 84.6198 287.312 85.0208 286.719 85.1875C286.458 85.2604 286.156 85.2969 285.812 85.2969L283.562 85.2031C282.812 85.2031 282.24 85.3646 281.844 85.6875C281.615 85.8646 281.453 86.1302 281.359 86.4844C281.62 87.4323 282.286 87.9062 283.359 87.9062ZM286.141 83.0781C285.911 82.9115 285.672 82.7917 285.422 82.7188C285.172 82.6458 284.964 82.6094 284.797 82.6094C284.63 82.6094 284.359 82.6667 283.984 82.7812C283.609 82.8854 283.276 83.0052 282.984 83.1406C282.266 83.474 281.906 83.8229 281.906 84.1875C282.74 84.2604 283.365 84.2969 283.781 84.2969C284.938 84.2969 285.719 84.1979 286.125 84C286.375 83.8958 286.5 83.7656 286.5 83.6094C286.5 83.4219 286.38 83.2448 286.141 83.0781Z" fill="white"/>
<path opacity="0.48" d="M531.438 353.75C531.438 353.552 531.443 353.245 531.453 352.828C531.474 352.401 531.49 351.922 531.5 351.391C531.521 350.859 531.542 350.302 531.562 349.719C531.583 349.135 531.599 348.578 531.609 348.047C531.63 347.516 531.646 347.042 531.656 346.625C531.667 346.208 531.677 345.896 531.688 345.688C531.667 345.458 531.708 345.312 531.812 345.25C531.917 345.188 532.031 345.156 532.156 345.156C532.292 345.156 532.406 345.167 532.5 345.188C532.604 345.208 532.677 345.292 532.719 345.438L532.469 353.469C532.448 353.656 532.302 353.792 532.031 353.875C531.76 353.948 531.562 353.906 531.438 353.75ZM541.703 351.391C542.047 351.391 542.219 351.521 542.219 351.781C542.219 352.042 542.104 352.234 541.875 352.359C541.646 352.474 541.385 352.557 541.094 352.609C540.812 352.661 540.547 352.693 540.297 352.703C540.047 352.703 539.885 352.714 539.812 352.734C539.75 352.745 539.599 352.786 539.359 352.859C539.13 352.922 538.854 353 538.531 353.094C538.208 353.177 537.859 353.271 537.484 353.375C536.307 353.688 535.37 353.844 534.672 353.844C534.318 353.844 534.078 353.792 533.953 353.688C533.839 353.573 533.818 353.417 533.891 353.219C534.672 352.531 535.484 351.646 536.328 350.562C537.589 348.948 538.219 347.688 538.219 346.781C538.219 346.604 538.193 346.438 538.141 346.281C538.026 345.958 537.729 345.75 537.25 345.656C536.792 345.656 536.417 345.75 536.125 345.938C535.833 346.125 535.557 346.333 535.297 346.562C535.047 346.792 534.786 347 534.516 347.188C534.255 347.375 533.932 347.469 533.547 347.469C533.557 347.125 533.698 346.792 533.969 346.469C534.51 345.802 535.276 345.323 536.266 345.031C536.62 344.917 536.901 344.859 537.109 344.859C537.318 344.859 537.474 344.865 537.578 344.875C537.984 344.917 538.333 345.062 538.625 345.312C538.917 345.562 539.089 345.948 539.141 346.469C539.141 347.938 538.453 349.568 537.078 351.359C536.703 351.849 536.333 352.302 535.969 352.719C536.083 352.729 536.26 352.734 536.5 352.734C536.75 352.734 537.089 352.677 537.516 352.562C537.943 352.438 538.396 352.292 538.875 352.125C539.354 351.948 539.828 351.781 540.297 351.625C540.766 351.469 541.234 351.391 541.703 351.391ZM550.828 344.781C551.151 344.885 551.406 345.042 551.594 345.25C551.792 345.448 551.885 345.776 551.875 346.234C551.865 346.693 551.604 347.208 551.094 347.781C551.698 348.021 552.083 348.24 552.25 348.438C552.417 348.635 552.526 348.844 552.578 349.062C552.641 349.271 552.672 349.531 552.672 349.844C552.672 350.552 552.484 351.172 552.109 351.703C551.745 352.224 551.281 352.656 550.719 353C550.156 353.344 549.536 353.599 548.859 353.766C548.193 353.932 547.615 354.016 547.125 354.016C546.635 354.016 546.161 353.984 545.703 353.922C545.255 353.849 544.833 353.724 544.438 353.547C543.51 353.13 543.047 352.505 543.047 351.672C543.047 351.411 543.13 351.156 543.297 350.906C543.464 350.646 543.641 350.401 543.828 350.172C544.026 349.943 544.208 349.729 544.375 349.531C544.542 349.323 544.625 349.146 544.625 349C544.625 348.844 544.594 348.719 544.531 348.625C544.479 348.521 544.417 348.422 544.344 348.328C544.156 348.089 544.062 347.823 544.062 347.531C544.062 347.24 544.146 346.948 544.312 346.656C544.479 346.365 544.698 346.109 544.969 345.891C545.25 345.661 545.568 345.469 545.922 345.312C546.276 345.146 546.635 345.01 547 344.906C547.708 344.719 548.385 344.625 549.031 344.625C549.917 344.625 550.516 344.677 550.828 344.781ZM544.312 351.5C544.312 352.198 544.667 352.688 545.375 352.969C545.865 353.156 546.453 353.25 547.141 353.25C547.828 353.25 548.432 353.177 548.953 353.031C549.474 352.885 549.932 352.667 550.328 352.375C551.214 351.74 551.656 350.885 551.656 349.812C551.406 348.969 550.62 348.547 549.297 348.547C548.38 348.547 547.469 348.75 546.562 349.156C545.698 349.552 545.068 350.026 544.672 350.578C544.464 350.87 544.344 351.177 544.312 351.5ZM550.594 345.656C550.146 345.458 549.589 345.359 548.922 345.359C547.474 345.359 546.422 345.719 545.766 346.438C545.536 346.688 545.401 346.99 545.359 347.344C545.359 347.656 545.458 347.896 545.656 348.062C545.854 348.219 546.109 348.297 546.422 348.297C546.474 348.307 546.552 348.312 546.656 348.312C546.771 348.312 546.953 348.292 547.203 348.25C547.453 348.198 547.745 348.125 548.078 348.031C548.411 347.938 548.745 347.828 549.078 347.703C549.422 347.568 549.734 347.427 550.016 347.281C550.641 346.948 551.005 346.641 551.109 346.359C551.109 346.182 551.068 346.021 550.984 345.875C550.901 345.729 550.771 345.656 550.594 345.656ZM560.391 353.531C560.901 353.021 561.417 352.438 561.938 351.781C562.458 351.125 562.776 350.688 562.891 350.469L561.578 349.031C561.411 348.854 561.25 348.677 561.094 348.5C560.938 348.323 560.797 348.167 560.672 348.031C560.547 347.896 560.448 347.781 560.375 347.688L560.266 347.562L561.172 346.594C561.641 347.167 561.984 347.604 562.203 347.906C562.432 348.198 562.615 348.432 562.75 348.609C562.979 348.901 563.312 349.26 563.75 349.688C563.896 349.479 564.156 349.104 564.531 348.562C565.156 347.635 565.656 346.948 566.031 346.5C566.271 346.5 566.464 346.583 566.609 346.75C566.755 346.917 566.828 347.073 566.828 347.219C566.557 347.802 566.167 348.417 565.656 349.062C565.469 349.292 565.297 349.516 565.141 349.734C564.984 349.943 564.859 350.172 564.766 350.422C565.401 350.87 566.161 351.63 567.047 352.703C567.245 352.943 567.385 353.125 567.469 353.25C567.469 353.323 567.411 353.432 567.297 353.578C567.12 353.828 566.964 353.984 566.828 354.047C566.63 353.953 566.422 353.786 566.203 353.547C565.995 353.297 565.771 353.026 565.531 352.734C565.292 352.443 565.042 352.151 564.781 351.859C564.531 351.568 564.266 351.328 563.984 351.141C563.745 351.411 563.411 351.802 562.984 352.312C562.203 353.25 561.682 353.812 561.422 354C561.224 354.042 560.943 353.948 560.578 353.719C560.484 353.667 560.422 353.604 560.391 353.531ZM574.859 353.75C574.859 353.552 574.865 353.245 574.875 352.828C574.896 352.401 574.911 351.922 574.922 351.391C574.943 350.859 574.964 350.302 574.984 349.719C575.005 349.135 575.021 348.578 575.031 348.047C575.052 347.516 575.068 347.042 575.078 346.625C575.089 346.208 575.099 345.896 575.109 345.688C575.089 345.458 575.13 345.312 575.234 345.25C575.339 345.188 575.453 345.156 575.578 345.156C575.714 345.156 575.828 345.167 575.922 345.188C576.026 345.208 576.099 345.292 576.141 345.438L575.891 353.469C575.87 353.656 575.724 353.792 575.453 353.875C575.182 353.948 574.984 353.906 574.859 353.75ZM585.125 351.391C585.469 351.391 585.641 351.521 585.641 351.781C585.641 352.042 585.526 352.234 585.297 352.359C585.068 352.474 584.807 352.557 584.516 352.609C584.234 352.661 583.969 352.693 583.719 352.703C583.469 352.703 583.307 352.714 583.234 352.734C583.172 352.745 583.021 352.786 582.781 352.859C582.552 352.922 582.276 353 581.953 353.094C581.63 353.177 581.281 353.271 580.906 353.375C579.729 353.688 578.792 353.844 578.094 353.844C577.74 353.844 577.5 353.792 577.375 353.688C577.26 353.573 577.24 353.417 577.312 353.219C578.094 352.531 578.906 351.646 579.75 350.562C581.01 348.948 581.641 347.688 581.641 346.781C581.641 346.604 581.615 346.438 581.562 346.281C581.448 345.958 581.151 345.75 580.672 345.656C580.214 345.656 579.839 345.75 579.547 345.938C579.255 346.125 578.979 346.333 578.719 346.562C578.469 346.792 578.208 347 577.938 347.188C577.677 347.375 577.354 347.469 576.969 347.469C576.979 347.125 577.12 346.792 577.391 346.469C577.932 345.802 578.698 345.323 579.688 345.031C580.042 344.917 580.323 344.859 580.531 344.859C580.74 344.859 580.896 344.865 581 344.875C581.406 344.917 581.755 345.062 582.047 345.312C582.339 345.562 582.51 345.948 582.562 346.469C582.562 347.938 581.875 349.568 580.5 351.359C580.125 351.849 579.755 352.302 579.391 352.719C579.505 352.729 579.682 352.734 579.922 352.734C580.172 352.734 580.51 352.677 580.938 352.562C581.365 352.438 581.818 352.292 582.297 352.125C582.776 351.948 583.25 351.781 583.719 351.625C584.188 351.469 584.656 351.391 585.125 351.391ZM594.25 344.781C594.573 344.885 594.828 345.042 595.016 345.25C595.214 345.448 595.307 345.776 595.297 346.234C595.286 346.693 595.026 347.208 594.516 347.781C595.12 348.021 595.505 348.24 595.672 348.438C595.839 348.635 595.948 348.844 596 349.062C596.062 349.271 596.094 349.531 596.094 349.844C596.094 350.552 595.906 351.172 595.531 351.703C595.167 352.224 594.703 352.656 594.141 353C593.578 353.344 592.958 353.599 592.281 353.766C591.615 353.932 591.036 354.016 590.547 354.016C590.057 354.016 589.583 353.984 589.125 353.922C588.677 353.849 588.255 353.724 587.859 353.547C586.932 353.13 586.469 352.505 586.469 351.672C586.469 351.411 586.552 351.156 586.719 350.906C586.885 350.646 587.062 350.401 587.25 350.172C587.448 349.943 587.63 349.729 587.797 349.531C587.964 349.323 588.047 349.146 588.047 349C588.047 348.844 588.016 348.719 587.953 348.625C587.901 348.521 587.839 348.422 587.766 348.328C587.578 348.089 587.484 347.823 587.484 347.531C587.484 347.24 587.568 346.948 587.734 346.656C587.901 346.365 588.12 346.109 588.391 345.891C588.672 345.661 588.99 345.469 589.344 345.312C589.698 345.146 590.057 345.01 590.422 344.906C591.13 344.719 591.807 344.625 592.453 344.625C593.339 344.625 593.938 344.677 594.25 344.781ZM587.734 351.5C587.734 352.198 588.089 352.688 588.797 352.969C589.286 353.156 589.875 353.25 590.562 353.25C591.25 353.25 591.854 353.177 592.375 353.031C592.896 352.885 593.354 352.667 593.75 352.375C594.635 351.74 595.078 350.885 595.078 349.812C594.828 348.969 594.042 348.547 592.719 348.547C591.802 348.547 590.891 348.75 589.984 349.156C589.12 349.552 588.49 350.026 588.094 350.578C587.885 350.87 587.766 351.177 587.734 351.5ZM594.016 345.656C593.568 345.458 593.01 345.359 592.344 345.359C590.896 345.359 589.844 345.719 589.188 346.438C588.958 346.688 588.823 346.99 588.781 347.344C588.781 347.656 588.88 347.896 589.078 348.062C589.276 348.219 589.531 348.297 589.844 348.297C589.896 348.307 589.974 348.312 590.078 348.312C590.193 348.312 590.375 348.292 590.625 348.25C590.875 348.198 591.167 348.125 591.5 348.031C591.833 347.938 592.167 347.828 592.5 347.703C592.844 347.568 593.156 347.427 593.438 347.281C594.062 346.948 594.427 346.641 594.531 346.359C594.531 346.182 594.49 346.021 594.406 345.875C594.323 345.729 594.193 345.656 594.016 345.656Z" fill="white"/>
<g filter="url(#filter2_d_0_73)">
<circle cx="557" cy="157" r="40" transform="rotate(35 557 157)" fill="#FBFBFB"/>
</g>
<path fill-rule="evenodd" clip-rule="evenodd" d="M566.177 143.894C558.969 138.846 548.941 140.614 543.894 147.823C539.821 153.639 540.148 161.192 544.104 166.526C544.702 167.067 545.177 166.911 545.464 166.502C545.693 166.174 546.267 165.355 547.013 164.29C542.753 162.528 543.794 159.472 543.794 159.472C544.253 157.596 543.638 156.556 543.638 156.556C542.983 154.876 544.294 155.794 544.294 155.794C545.547 156.794 545.424 158.539 545.424 158.539C545.194 161.308 547.48 162.053 548.528 162.299C549.184 161.537 549.995 161.251 550.552 161.153C547.833 158.76 545.605 155.491 549.104 150.494C550.079 149.102 551.43 148.217 552.881 147.89C552.946 147.447 553.454 145.85 555.453 144.564C555.453 144.564 556.748 144.982 558.14 148.398C559.434 148.816 560.557 149.48 561.703 150.283C562.85 151.086 563.8 151.995 564.693 152.987C568.437 153.045 569.273 154.118 569.273 154.118C568.748 156.436 567.339 157.403 567.027 157.673C567.216 159.148 566.904 160.639 565.872 162.113C562.373 167.11 558.539 166.135 555.361 164.397C555.565 165.151 555.401 166.257 554.541 167.486C553.336 169.206 552.304 170.681 552.017 171.09C551.788 171.418 551.747 171.999 552.459 172.376C558.824 174.27 566.034 171.993 570.106 166.177C575.154 158.969 573.386 148.941 566.177 143.894Z" fill="#333333"/>
<g filter="url(#filter3_d_0_73)">
<circle cx="248" cy="293" r="33" transform="rotate(45 248 293)" fill="#0070F4"/>
</g>
<path d="M255.778 285.222L252.243 288.757" stroke="#DFDFDF" stroke-width="2" stroke-linecap="square"/>
<path d="M243.757 297.243L240.222 300.778" stroke="#DFDFDF" stroke-width="2" stroke-linecap="square"/>
<circle cx="248" cy="293" r="6" transform="rotate(45 248 293)" stroke="white" stroke-width="2" stroke-linecap="square"/>
<path d="M518.769 253.494C518.32 253.172 518.218 252.547 518.54 252.098L523.787 244.787C524.109 244.338 524.734 244.235 525.183 244.557C525.632 244.879 525.734 245.504 525.412 245.953L520.748 252.452L527.247 257.117C527.696 257.439 527.798 258.064 527.476 258.512C527.154 258.961 526.529 259.064 526.081 258.742L518.769 253.494ZM607.765 184.717C608.692 185.091 608.692 185.092 608.692 185.093C608.691 185.093 608.691 185.094 608.691 185.096C608.69 185.098 608.688 185.101 608.687 185.105C608.683 185.113 608.679 185.125 608.673 185.14C608.66 185.169 608.642 185.213 608.618 185.269C608.571 185.383 608.5 185.549 608.405 185.764C608.216 186.196 607.931 186.826 607.547 187.629C606.778 189.235 605.609 191.536 604.002 194.326C600.789 199.906 595.821 207.454 588.798 215.339C574.748 231.113 552.451 248.255 519.514 253.668L519.19 251.695C551.566 246.374 573.476 229.534 587.304 214.009C594.22 206.245 599.109 198.814 602.269 193.328C603.848 190.586 604.994 188.331 605.743 186.765C606.118 185.983 606.393 185.373 606.574 184.961C606.664 184.754 606.731 184.598 606.775 184.494C606.797 184.442 606.813 184.403 606.823 184.378C606.829 184.365 606.832 184.356 606.835 184.35C606.836 184.347 606.837 184.345 606.837 184.344C606.838 184.343 606.838 184.343 606.838 184.343C606.838 184.343 606.838 184.343 607.765 184.717Z" fill="url(#paint7_linear_0_73)"/>
<path d="M273.836 209.241C274.321 209.506 274.499 210.113 274.234 210.598L269.917 218.495C269.652 218.979 269.044 219.157 268.559 218.892C268.075 218.627 267.897 218.02 268.162 217.535L272 210.516L264.98 206.678C264.496 206.413 264.318 205.805 264.583 205.321C264.847 204.836 265.455 204.658 265.94 204.923L273.836 209.241ZM193.886 288.351C192.919 288.092 192.92 288.092 192.92 288.091C192.92 288.09 192.92 288.089 192.921 288.088C192.921 288.085 192.922 288.082 192.923 288.078C192.926 288.069 192.929 288.057 192.933 288.042C192.942 288.011 192.954 287.966 192.971 287.906C193.005 287.788 193.055 287.615 193.122 287.389C193.258 286.938 193.463 286.278 193.747 285.434C194.315 283.746 195.195 281.32 196.45 278.355C198.959 272.425 202.969 264.328 208.98 255.645C221.002 238.276 241.044 218.545 273.075 209.158L273.638 211.078C242.152 220.304 222.457 239.689 210.624 256.783C204.706 265.332 200.759 273.304 198.292 279.134C197.058 282.049 196.196 284.426 195.643 286.071C195.366 286.894 195.167 287.533 195.038 287.964C194.973 288.179 194.926 288.343 194.895 288.452C194.88 288.506 194.869 288.546 194.861 288.573C194.858 288.586 194.855 288.596 194.854 288.602C194.853 288.605 194.852 288.607 194.852 288.608C194.852 288.609 194.852 288.609 194.851 288.609C194.851 288.609 194.852 288.609 193.886 288.351Z" fill="url(#paint8_linear_0_73)"/>
</g>
<defs>
<filter id="filter0_d_0_73" x="0" y="0" width="808" height="472" filterUnits="userSpaceOnUse" color-interpolation-filters="sRGB">
<feFlood flood-opacity="0" result="BackgroundImageFix"/>
<feColorMatrix in="SourceAlpha" type="matrix" values="0 0 0 0 0 0 0 0 0 0 0 0 0 0 0 0 0 0 127 0" result="hardAlpha"/>
<feMorphology radius="5" operator="erode" in="SourceAlpha" result="effect1_dropShadow_0_73"/>
<feOffset dy="20"/>
<feGaussianBlur stdDeviation="12.5"/>
<feColorMatrix type="matrix" values="0 0 0 0 0.0980392 0 0 0 0 0.0980392 0 0 0 0 0.0980392 0 0 0 0.16 0"/>
<feBlend mode="normal" in2="BackgroundImageFix" result="effect1_dropShadow_0_73"/>
<feBlend mode="normal" in="SourceGraphic" in2="effect1_dropShadow_0_73" result="shape"/>
</filter>
<filter id="filter1_d_0_73" x="292" y="128" width="224" height="224" filterUnits="userSpaceOnUse" color-interpolation-filters="sRGB">
<feFlood flood-opacity="0" result="BackgroundImageFix"/>
<feColorMatrix in="SourceAlpha" type="matrix" values="0 0 0 0 0 0 0 0 0 0 0 0 0 0 0 0 0 0 127 0" result="hardAlpha"/>
<feOffset dy="24"/>
<feGaussianBlur stdDeviation="24"/>
<feColorMatrix type="matrix" values="0 0 0 0 0.0980392 0 0 0 0 0.0980392 0 0 0 0 0.0980392 0 0 0 0.32 0"/>
<feBlend mode="normal" in2="BackgroundImageFix" result="effect1_dropShadow_0_73"/>
<feBlend mode="normal" in="SourceGraphic" in2="effect1_dropShadow_0_73" result="shape"/>
</filter>
<filter id="filter2_d_0_73" x="496.997" y="116.997" width="120.007" height="120.007" filterUnits="userSpaceOnUse" color-interpolation-filters="sRGB">
<feFlood flood-opacity="0" result="BackgroundImageFix"/>
<feColorMatrix in="SourceAlpha" type="matrix" values="0 0 0 0 0 0 0 0 0 0 0 0 0 0 0 0 0 0 127 0" result="hardAlpha"/>
<feMorphology radius="5" operator="erode" in="SourceAlpha" result="effect1_dropShadow_0_73"/>
<feOffset dy="20"/>
<feGaussianBlur stdDeviation="12.5"/>
<feColorMatrix type="matrix" values="0 0 0 0 0.0980392 0 0 0 0 0.0980392 0 0 0 0 0.0980392 0 0 0 0.16 0"/>
<feBlend mode="normal" in2="BackgroundImageFix" result="effect1_dropShadow_0_73"/>
<feBlend mode="normal" in="SourceGraphic" in2="effect1_dropShadow_0_73" result="shape"/>
</filter>
<filter id="filter3_d_0_73" x="195" y="260" width="106" height="106" filterUnits="userSpaceOnUse" color-interpolation-filters="sRGB">
<feFlood flood-opacity="0" result="BackgroundImageFix"/>
<feColorMatrix in="SourceAlpha" type="matrix" values="0 0 0 0 0 0 0 0 0 0 0 0 0 0 0 0 0 0 127 0" result="hardAlpha"/>
<feMorphology radius="5" operator="erode" in="SourceAlpha" result="effect1_dropShadow_0_73"/>
<feOffset dy="20"/>
<feGaussianBlur stdDeviation="12.5"/>
<feColorMatrix type="matrix" values="0 0 0 0 0.0980392 0 0 0 0 0.0980392 0 0 0 0 0.0980392 0 0 0 0.16 0"/>
<feBlend mode="normal" in2="BackgroundImageFix" result="effect1_dropShadow_0_73"/>
<feBlend mode="normal" in="SourceGraphic" in2="effect1_dropShadow_0_73" result="shape"/>
</filter>
<linearGradient id="paint0_linear_0_73" x1="276" y1="88" x2="276" y2="344" gradientUnits="userSpaceOnUse">
<stop stop-color="white"/>
<stop offset="0.774017" stop-color="#EAEAEA"/>
<stop offset="1" stop-color="#DFDFDF"/>
</linearGradient>
<linearGradient id="paint1_linear_0_73" x1="308.73" y1="120" x2="308.73" y2="310.541" gradientUnits="userSpaceOnUse">
<stop stop-color="white"/>
<stop offset="0.485697" stop-color="#EAEAEA"/>
<stop offset="1" stop-color="#DFDFDF" stop-opacity="0.01"/>
</linearGradient>
<radialGradient id="paint2_radial_0_73" cx="0" cy="0" r="1" gradientUnits="userSpaceOnUse" gradientTransform="translate(367.074 262.16) rotate(-50.9808) scale(102.325)">
<stop stop-color="#4FD1C5"/>
<stop offset="0.258711" stop-color="#81E6D9"/>
<stop offset="1" stop-color="#338CF5"/>
</radialGradient>
<linearGradient id="paint3_linear_0_73" x1="646.565" y1="369.003" x2="110" y2="369.003" gradientUnits="userSpaceOnUse">
<stop stop-color="white" stop-opacity="0.01"/>
<stop offset="0.459096" stop-color="white"/>
<stop offset="1" stop-color="white" stop-opacity="0.01"/>
</linearGradient>
<linearGradient id="paint4_linear_0_73" x1="646.565" y1="64.0032" x2="110" y2="64.0032" gradientUnits="userSpaceOnUse">
<stop stop-color="white" stop-opacity="0.01"/>
<stop offset="0.459096" stop-color="white"/>
<stop offset="1" stop-color="white" stop-opacity="0.01"/>
</linearGradient>
<linearGradient id="paint5_linear_0_73" x1="563.997" y1="296.565" x2="563.997" y2="-240" gradientUnits="userSpaceOnUse">
<stop stop-color="white" stop-opacity="0.01"/>
<stop offset="0.459096" stop-color="white"/>
<stop offset="1" stop-color="white" stop-opacity="0.01"/>
</linearGradient>
<linearGradient id="paint6_linear_0_73" x1="243.997" y1="668.565" x2="243.997" y2="132" gradientUnits="userSpaceOnUse">
<stop stop-color="white" stop-opacity="0.01"/>
<stop offset="0.459096" stop-color="white"/>
<stop offset="1" stop-color="white" stop-opacity="0.01"/>
</linearGradient>
<linearGradient id="paint7_linear_0_73" x1="469.916" y1="226.892" x2="516.701" y2="137.211" gradientUnits="userSpaceOnUse">
<stop stop-color="white" stop-opacity="0.88"/>
<stop offset="1" stop-color="white" stop-opacity="0.01"/>
</linearGradient>
<linearGradient id="paint8_linear_0_73" x1="325.567" y1="229.691" x2="290.061" y2="324.405" gradientUnits="userSpaceOnUse">
<stop stop-color="white" stop-opacity="0.88"/>
<stop offset="1" stop-color="white" stop-opacity="0.01"/>
</linearGradient>
<clipPath id="clip0_0_73">
<rect width="765" height="437" fill="white" transform="translate(20)"/>
</clipPath>
</defs>
</svg>
